# xmcd
#
# Track frame offsets:
#	150
#	17321
#	31273
#	47257
#	49955
#	63160
#	78093
#	80025
#	91933
#	113404
#	129413
#	150285
#	152533
#	169112
#	188765
#	210630
#
# Disc length: 3016 seconds
#
# Revision: 1
# Processed by: cddbd v1.4PL0 Copyright (c) Steve Scherf et al.
# Submitted via: audiograbber 1.80
#
DISCID=ab0bc610
DTITLE=Queen Pen - Conversations With Queen
DYEAR=1900
DGENRE=
TTITLE0=Warn U feat Kory Ward
TTITLE1=Pussy Aint For Free
TTITLE2=I Reps
TTITLE3=QP Camron Skit
TTITLE4=QP Walks
TTITLE5=Ghetto Divorce
TTITLE6=QP Miss Jones Skit
TTITLE7=I Got Cha
TTITLE8=Revolution
TTITLE9=For You
TTITLE10=Baby Daddy
TTITLE11=QP 563 Skit
TTITLE12=Cold Cold World
TTITLE13=It's True
TTITLE14=What Ya'll Wanna Hear
TTITLE15=Who's The (Bonus Track)
EXTD=
EXTT0=
EXTT1=
EXTT2=
EXTT3=
EXTT4=
EXTT5=
EXTT6=
EXTT7=
EXTT8=
EXTT9=
EXTT10=
EXTT11=
EXTT12=
EXTT13=
EXTT14=
EXTT15=
PLAYORDER=
